<svg viewBox="0 0 100 125" width={props.width || 40} fill="white" {...props}>
        <path d="M12.67,83.18v-6.71c0-0.88-0.72-1.6-1.6-1.6s-1.6,0.72-1.6,1.6v6.71c0,0.88,0.72,1.6,1.6,1.6S12.67,84.06,12.67,83.18z"/>
        <path d="M29.98,83.18v-6.71c0-0.88-0.72-1.6-1.6-1.6s-1.6,0.72-1.6,1.6v6.71c0,0.88,0.72,1.6,1.6,1.6S29.98,84.06,29.98,83.18z"/>
        <path d="M19.73,58.81c5.32,0,9.66-4.33,9.66-9.66c0-3.26-1.63-6.13-4.11-7.88c0.51-0.37,1.04-0.71,1.58-1.01   c4.88-2.71,11.13-2.71,16.01,0c0.55,0.31,1.08,0.65,1.59,1.02c-2.48,1.75-4.11,4.62-4.11,7.88c0,5.32,4.33,9.66,9.66,9.66   c5.32,0,9.66-4.33,9.66-9.66c0-3.26-1.63-6.13-4.11-7.88c0.51-0.37,1.04-0.71,1.58-1.02c4.88-2.71,11.12-2.72,16.01,0   c0.55,0.3,1.07,0.65,1.58,1.01c-2.48,1.75-4.11,4.62-4.11,7.88c0,5.32,4.33,9.66,9.66,9.66c5.32,0,9.66-4.33,9.66-9.66   c0-5.32-4.33-9.66-9.66-9.66c-0.79,0-1.55,0.12-2.28,0.3c-1.03-0.89-2.12-1.69-3.29-2.34c-5.84-3.24-13.29-3.24-19.12,0   c-1.18,0.65-2.26,1.46-3.29,2.34c-0.74-0.18-1.49-0.3-2.29-0.3c-0.79,0-1.55,0.12-2.29,0.3c-1.02-0.88-2.11-1.69-3.29-2.34   c-5.84-3.24-13.3-3.24-19.12,0c-1.18,0.65-2.27,1.46-3.29,2.34c-0.73-0.18-1.49-0.3-2.28-0.3c-5.32,0-9.66,4.33-9.66,9.66   C10.07,54.48,14.4,58.81,19.73,58.81z M86.73,49.15c0,3.56-2.9,6.45-6.45,6.45c-3.56,0-6.45-2.89-6.45-6.45   c0-3.56,2.89-6.45,6.45-6.45C83.83,42.7,86.73,45.59,86.73,49.15z M56.45,49.15c0,3.56-2.9,6.45-6.45,6.45   c-3.56,0-6.45-2.89-6.45-6.45c0-3.56,2.89-6.45,6.45-6.45C53.56,42.7,56.45,45.59,56.45,49.15z M19.73,42.7   c3.56,0,6.45,2.9,6.45,6.45c0,3.56-2.9,6.45-6.45,6.45c-3.56,0-6.45-2.89-6.45-6.45C13.28,45.59,16.17,42.7,19.73,42.7z"/>
        <path d="M42.95,83.18v-6.71c0-0.88-0.72-1.6-1.6-1.6c-0.88,0-1.6,0.72-1.6,1.6v6.71c0,0.88,0.72,1.6,1.6,1.6   C42.23,84.78,42.95,84.06,42.95,83.18z"/>
        <path d="M60.25,83.18v-6.71c0-0.88-0.72-1.6-1.6-1.6s-1.6,0.72-1.6,1.6v6.71c0,0.88,0.72,1.6,1.6,1.6S60.25,84.06,60.25,83.18z"/>
        <path d="M34.86,34.53c5.32,0,9.66-4.33,9.66-9.66c0-5.32-4.33-9.66-9.66-9.66c-5.32,0-9.66,4.33-9.66,9.66   C25.21,30.2,29.54,34.53,34.86,34.53z M34.86,18.42c3.56,0,6.45,2.89,6.45,6.45c0,3.56-2.9,6.45-6.45,6.45   c-3.56,0-6.45-2.89-6.45-6.45C28.41,21.32,31.31,18.42,34.86,18.42z"/>
        <path d="M65.14,34.53c5.32,0,9.66-4.33,9.66-9.66c0-5.32-4.33-9.66-9.66-9.66c-5.32,0-9.66,4.33-9.66,9.66   C55.48,30.2,59.81,34.53,65.14,34.53z M65.14,18.42c3.56,0,6.45,2.89,6.45,6.45c0,3.56-2.9,6.45-6.45,6.45   c-3.56,0-6.45-2.89-6.45-6.45C58.68,21.32,61.58,18.42,65.14,18.42z"/>
        <path d="M89.83,61.73c-5.84-3.24-13.3-3.24-19.12,0c-2.17,1.2-4.03,2.8-5.56,4.64c-1.56-1.87-3.45-3.45-5.59-4.64   c-5.84-3.24-13.29-3.24-19.12,0c-2.12,1.18-4.02,2.76-5.58,4.63c-1.56-1.87-3.45-3.45-5.58-4.63c-5.84-3.24-13.29-3.24-19.12,0   C3.9,65.22,0,71.83,0,78.99v4.19c0,0.88,0.72,1.6,1.6,1.6s1.6-0.72,1.6-1.6v-4.19c0-6,3.26-11.54,8.52-14.46   c4.88-2.71,11.12-2.71,16.01,0c2.05,1.14,3.82,2.73,5.23,4.62c-1.73,2.99-2.69,6.35-2.69,9.84v4.19c0,0.88,0.72,1.6,1.6,1.6   c0.88,0,1.6-0.72,1.6-1.6v-4.19c0-3.24,0.94-6.38,2.72-9.07c0,0,0,0,0,0c0,0,0,0,0-0.01c1.47-2.23,3.47-4.08,5.8-5.37   c4.88-2.71,11.12-2.71,16.01,0c2.04,1.13,3.81,2.72,5.2,4.58c-1.71,2.95-2.66,6.34-2.66,9.87v4.19c0,0.88,0.72,1.6,1.6,1.6   c0.88,0,1.6-0.72,1.6-1.6v-4.19c0-6,3.26-11.54,8.52-14.46c4.88-2.71,11.13-2.72,16.01,0c5.25,2.92,8.52,8.46,8.52,14.46v4.19   c0,0.88,0.72,1.6,1.6,1.6s1.6-0.72,1.6-1.6v-4.19C100,71.83,96.1,65.22,89.83,61.73z"/>
        <path d="M71.62,74.87c-0.88,0-1.6,0.72-1.6,1.6v6.71c0,0.88,0.72,1.6,1.6,1.6c0.88,0,1.6-0.72,1.6-1.6v-6.71   C73.22,75.58,72.5,74.87,71.62,74.87z"/>
        <path d="M88.93,74.87c-0.88,0-1.6,0.72-1.6,1.6v6.71c0,0.88,0.72,1.6,1.6,1.6c0.88,0,1.6-0.72,1.6-1.6v-6.71   C90.53,75.58,89.81,74.87,88.93,74.87z"/>
    </svg>