<svg viewBox="0 0 100 125" version="1.1" x="0px" y="0px" width="40px">
        <g stroke="none" stroke-width="1" fill="none" fill-rule="evenodd">
        {/* <g fill="#000000"> */}
        <path fill="white" d="M30.553122,4.91849268 C30.0133194,5.1297198 29.9898497,5.64605277 29.9898497,5.64605277 C30.2010768,6.79606711 29.8020923,6.84300647 29.2622896,7.05423359 C28.722487,7.28893039 27.9010482,6.2093251 26.7745035,5.95115861 C25.6479589,5.71646181 25.3193833,7.31240007 24.9673381,8.01649048 C24.6387626,8.72058089 26.3520493,9.54201971 25.7887769,9.80018619 C25.2255046,10.034883 25.2959136,10.8328521 25.2959136,10.8328521 C25.2959136,10.8328521 25.7418376,12.0063361 25.0377472,12.2645026 C24.3336568,12.5226691 24.6622323,11.3491851 22.9020063,11.3491851 C21.1183105,11.3491851 21.963219,15.6206669 21.963219,15.6206669 C21.963219,15.6206669 21.376477,14.4941223 21.2825983,15.2216823 C21.2121893,15.9492424 21.0009621,15.761485 21.0009621,15.761485 C20.3672808,15.9492424 19.1468574,15.9023031 18.7478728,15.9492424 C18.3723579,16.0196515 17.8090856,15.1278036 18.0907218,14.4941223 C18.3723579,13.8369712 18.1611308,13.5318654 18.1611308,13.5318654 C18.1611308,13.5318654 17.5509191,12.0063361 17.4335707,11.0206096 C17.3162223,10.034883 18.3019489,7.92261176 18.7244032,6.86647615 C19.1468574,5.78687085 21.5642345,2.68887305 23.9112025,3.18173633 C26.2347009,3.65112994 27.4551242,3.67459962 27.4551242,3.67459962 C29.1449412,3.43990282 30.553122,4.91849268 30.553122,4.91849268 Z M15.4855873,21.2064508 C15.4855873,21.2064508 19.2172664,16.0431212 21.5877042,16.277818 C23.9816115,16.5125148 28.7694263,23.177904 29.4265774,28.5759305 L29.9898497,31.767807 L29.0745322,31.7443373 L29.0510625,29.9841113 C29.0510625,29.9841113 27.4081849,28.8575666 27.1265487,28.2708246 C26.8214429,27.6840826 26.8214429,25.6891598 23.8407935,22.9432072 L24.8030504,21.5115567 L23.3009908,21.0891024 L20.7662653,17.8268169 L20.5785079,17.9676349 L23.1367031,21.2533902 L24.4510052,21.6054354 L23.653036,22.8258588 C23.653036,22.8258588 19.3346148,20.0799062 18.3488883,20.1737849 C17.3866314,20.2676636 16.4713138,20.5492998 15.4855873,21.2064508 Z M15.5325266,21.3707386 C15.5325266,21.3707386 16.1427383,20.9952237 16.8468287,20.6901179 C17.4570404,20.4319514 18.1141915,20.314603 18.4897063,20.314603 C19.3111452,20.314603 23.1367031,22.7554497 24.0754903,23.4126008 C25.0377472,24.0697518 26.9387913,26.9330528 26.8214429,28.1769459 C26.8214429,28.1769459 25.2020349,28.0830672 23.066294,26.0177353 L22.9489456,26.0177353 C22.7611882,25.9942656 24.239778,27.7075523 26.7979732,28.3647033 L28.8633051,30.007581 L28.9102444,31.7208676 L25.1081562,31.697398 L29.9898497,32.0729128 L35.5052246,36.2270463 L40.0818123,38.3627872 L40.5042665,40.4515887 L38.5328134,43.1975413 C38.5328134,43.1975413 38.415465,44.2067376 38.9552676,44.1363285 C39.4950703,44.0893892 38.1103591,44.5587828 37.2185113,44.324086 C36.3266634,44.0893892 21.2825983,38.2923781 15.3447692,29.7728842 L15.2743601,27.214689 L17.1754042,28.2238853 C17.1754042,28.2238853 14.8519059,26.7452954 14.8519059,25.6656901 C14.8519059,24.5860848 14.5702697,22.0278896 15.5325266,21.3707386 Z M27.0796094,17.2400749 L28.4643205,17.7564078 L28.4643205,19.141119 C32.3133481,23.0136162 32.6184539,33.8331389 32.6184539,33.8331389 L30.1306678,31.7912767 L29.5908652,28.7636879 L29.309229,27.0269316 L28.1826843,23.8585247 L27.689821,19.1880583 L26.6806248,18.7186647 L27.0796094,17.2400749 Z M28.4643205,16.418636 C28.4643205,16.418636 29.6378045,15.9492424 30.2480162,16.0665908 C30.8347582,16.1839392 32.9704991,17.2635445 32.9704991,17.2635445 C32.9704991,17.2635445 34.0970438,18.5074376 34.0970438,19.1645886 C34.0970438,19.8217397 33.4398927,20.830936 34.6368464,22.074829 C34.6368464,22.074829 35.1766491,33.1759878 36.1858453,36.320925 C36.1858453,36.320925 34.2613315,35.3351984 32.829681,33.9504873 C32.829681,33.9504873 32.1959997,26.8391741 31.3276215,24.280979 C30.4592433,21.6993141 28.5816689,17.8033472 28.5816689,17.8033472 L28.4643205,16.418636 Z M32.829681,42.7516174 L35.1531794,43.8312227 L35.4348156,48.0088258 L36.8664661,52.9609283 L35.9042092,53.4537916 L33.5337714,50.2853848 L31.8439545,50.0976273 C32.7358023,49.2057795 32.829681,42.7516174 32.829681,42.7516174 Z M35.2470581,43.8546924 L36.5613602,44.394495 C36.5613602,44.394495 36.5613602,47.3282051 36.6082996,47.9149471 C36.6787086,48.5251588 38.0868894,53.5242007 38.0868894,53.5242007 L35.9980879,53.5242007 L37.0072841,53.0548071 L35.5052246,47.9618864 L35.2470581,43.8546924 Z M36.1154363,53.7354278 L43.5083856,53.8058368 L44.6818696,70.8448248 L44.1655366,71.6193242 L37.899132,71.7366726 C37.899132,71.7366726 37.4297384,69.1784775 37.2185113,68.2396902 C37.0072841,67.300903 37.8756623,62.1845127 37.7583139,61.2926649 C37.6174958,60.400817 36.1154363,53.7354278 36.1154363,53.7354278 Z M15.1100724,54.4629879 L27.9714572,56.880365 L29.8490316,55.6599416 L30.1541375,50.0272183 L33.416423,50.3792635 L35.8572698,53.57114 C35.7399214,54.4629879 37.4297384,60.2834686 37.5470868,61.2457255 C37.6644352,62.2079824 36.8899357,68.1692812 36.8899357,68.1692812 C37.5470868,69.1080684 38.1338288,76.2663209 38.1338288,76.2663209 L38.7440405,89.9726142 L36.8899357,88.6113728 C38.2042378,89.9256749 38.8613889,90.9348711 38.8613889,90.9348711 L40.3399787,94.9716562 L39.1430251,94.69002 L38.0868894,97.1778061 L34.8715432,97.1778061 L33.5572411,96.5206551 L31.5388486,81.6408777 L32.9704991,83.1194676 L30.2949556,78.6602283 C30.2245465,75.3744731 27.8541088,61.3630739 27.8541088,61.3630739 L29.0275928,58.4528335 C28.6286083,58.4528335 25.342853,64.4610717 24.5214142,65.4233286 C23.6765057,66.3621158 21.7285222,87.7195249 21.7285222,87.7195249 L20.2968717,84.6684665 L22.6673094,93.2583695 L21.8458706,95.6992162 L15.8845718,95.276762 C16.3774351,94.5726716 16.6590713,90.2777201 16.6590713,90.2777201 C16.6590713,90.2777201 16.3774351,85.9123595 16.5417229,84.2460122 C16.7294803,82.5796649 17.0815255,80.7959692 17.3162223,79.5520762 C17.5509191,78.2847134 17.5509191,65.0478137 17.5509191,66.3151765 C17.5509191,67.5825392 17.1754042,75.2101853 17.1754042,75.2101853 C16.682541,67.9345844 15.2274208,63.4518755 15.2274208,63.4518755 L15.1100724,54.4629879 Z M14.6641485,96.3563673 L16.4947835,95.6053375 L21.8458706,95.863504 C22.6673094,96.5206551 21.9397494,97.8349572 21.9397494,97.8349572 L20.5550382,97.8349572 L19.1937968,98.5625172 L14.5468,98.3043508 L14.6641485,96.3563673 Z M33.5807108,96.9431093 C33.862347,96.9431093 34.4021496,97.3655636 34.6603161,97.3890332 C38.0399501,97.5767907 38.3685256,97.3420939 38.3685256,97.3420939 L39.3073128,95.1359439 L43.8369611,97.4594423 L43.8369611,98.5390476 L43.2502191,99.313547 C43.2502191,99.313547 39.072616,98.7502747 38.6032224,98.7033353 C38.1103591,98.6329263 37.9930107,97.8114875 37.9930107,97.8114875 C32.9235598,98.1165933 33.5807108,96.9431093 33.5807108,96.9431093 Z M15.2508905,29.9841113 C16.0488596,33.457624 29.7551529,41.3199669 29.7551529,41.3434366 L30.3418949,41.5546637 C30.412304,42.2352844 30.2010768,44.6761312 30.2010768,45.2394035 C30.1776072,45.9669636 29.6612742,55.5660629 29.6612742,55.5660629 L27.9245178,56.6926075 L12.2937107,53.5242007 C11.7539081,52.0925502 16.095799,40.7801642 16.095799,40.7801642 L15.9784506,35.8515314 C16.2600867,36.2974553 16.5182532,36.8137883 16.75295,37.2127728 C16.8937681,37.4474696 17.3162223,38.0342116 17.4570404,38.2219691 C17.5509191,38.3393175 17.3631617,38.081151 17.4570404,38.2219691 C15.2508905,35.288259 15.2508905,29.9841113 15.2508905,29.9841113 Z M30.6235311,41.6954818 L32.6419236,42.6577387 L32.4776358,46.0373726 C32.3602874,47.6333109 32.1959997,48.9710827 31.7500757,50.050688 C31.2337428,49.9802789 30.7174098,49.9333396 30.2010768,49.8864002 C30.4357736,47.774129 30.6235311,41.6954818 30.6235311,41.6954818 Z M40.1052819,41.5077243 L42.4053106,42.4699812 C41.5369324,42.3761025 41.7716292,43.5261168 41.7716292,43.5261168 L44.3298244,44.6291918 C45.2686116,44.2302073 45.6206568,42.117936 45.6206568,42.117936 L41.935917,41.4842547 L46.3716866,41.4842547 C47.8268068,42.7281477 47.3104738,44.2771466 47.3104738,44.2771466 C47.59211,45.1455248 45.6206568,46.2016604 45.6206568,46.2016604 L43.7430824,46.2720694 C43.7430824,46.2720694 42.0063261,45.0516461 41.278766,44.4649041 C40.5277362,43.878162 38.6736314,43.3618291 38.6736314,43.3618291 L40.1052819,41.5077243 Z M65.3535808,9.88873353 L65.3301111,6.88461444 C65.3301111,6.88461444 66.1046106,4.86622193 71.8077429,5.00704002 C77.5108752,5.17132778 77.2527088,7.09584157 77.2527088,7.09584157 L77.3231178,9.11423408 C77.3231178,9.11423408 77.9567992,10.8744601 77.3935268,11.6958989 C76.8302545,12.5173377 77.1353604,13.8551095 77.1353604,13.8551095 C77.1353604,13.8551095 76.0088157,15.1928813 76.0792247,16.6480015 C76.0792247,16.6480015 74.6006349,17.5398493 73.2628631,17.4694403 C73.2628631,17.4694403 71.7608036,16.1316685 72.5118333,15.3102297 C72.5118333,15.3102297 74.3424684,14.3714425 73.8496051,13.9020489 C73.8496051,13.9020489 73.7322567,12.3295803 72.0659094,12.7989739 L70.9863041,13.9255185 C70.9863041,13.9255185 69.7658807,14.2306244 69.8362898,13.7142914 C69.9066988,13.1744888 70.3526227,13.4561249 69.9536382,12.0948835 L69.3199568,11.5081415 C69.3199568,11.5081415 69.9066988,8.59790111 69.5077142,8.29279526 C69.08526,7.98768942 68.498518,7.51829581 66.7148223,8.3632043 L65.3535808,9.88873353 Z M74.7649226,17.6102584 L76.3843306,17.6102584 L77.3700572,18.736803 L76.3843306,17.6102584 L77.3700572,18.736803 L77.3700572,18.9949695 C77.3700572,19.2766057 77.9333295,23.9001327 77.9333295,23.9001327 L75.985346,24.392996 L77.3935268,26.6226156 C75.914937,32.3492176 69.6954717,40.9625903 69.6954717,40.9625903 L70.4699711,38.9911372 C71.4087584,29.5093863 76.1965731,19.0419089 76.1965731,19.0419089 L74.7649226,17.6102584 Z M68.7097451,21.6470434 C68.7097451,21.6470434 70.3760924,20.1215142 71.8546823,21.9521492 L70.8220163,22.2337854 L70.0944563,24.4399353 L70.1413956,33.1002474 L69.4842446,36.8319266 L69.3199568,45.2340721 L66.9260494,46.6422529 C66.9260494,46.6422529 67.3485037,41.0095297 67.325034,30.5420522 L69.4842446,22.186846 L68.7097451,21.6470434 Z M61.0586293,21.6939827 L67.0199281,19.3000753 L64.9076569,23.8297237 L65.5413383,25.496071 L64.1096878,26.4113885 C64.1096878,26.4113885 65.3535808,36.3390633 66.7617616,41.056469 C66.7617616,41.056469 67.1138068,42.3942408 66.7148223,46.9004194 C66.7148223,46.9004194 63.1239612,59.1750622 61.1994474,58.1423963 C59.2514639,57.0862607 59.392282,54.5750049 59.392282,54.5750049 C59.392282,54.5750049 59.2984033,47.7453279 61.2229171,42.1360743 C61.2229171,42.1360743 61.3872048,35.0951702 61.2933261,30.635931 C61.1994474,26.153222 61.0586293,21.6939827 61.0586293,21.6939827 Z M67.1607462,19.3000753 C67.7005489,19.9337567 67.2546249,24.5572837 67.2546249,24.5572837 L67.0903372,33.9216862 L66.9964584,40.9625903 C65.9872622,39.3431824 64.2035665,26.4113885 64.2035665,26.4113885 L65.6586867,25.5430103 L65.0719447,23.8531933 L67.1607462,19.3000753 Z M60.8004628,21.8600006 C60.8004628,21.8600006 61.1759777,37.1805658 61.1290384,37.5795504 C61.082099,37.978535 60.3227837,38.4416612 59.6712426,39.3183525 L54.0697417,40.6918216 L59.6712426,39.5444993 L53.7411662,44.6347279 L49.7043812,46.9347566 C47.9676249,47.122514 47.5686403,44.8694247 47.5686403,44.8694247 C49.5400934,47.122514 49.4462147,46.535772 49.8921386,46.3480146 C50.3380626,46.1837268 49.2115179,41.2316243 49.2115179,41.2316243 L47.5686403,40.4101855 L48.178852,39.0724137 L54.9528705,34.7210714 L57.3211947,32.7205603 C57.9548761,32.4154545 58.5072733,31.4339042 58.5072733,31.4339042 L60.1815207,29.5483827 L58.7042671,30.9230836 C59.0637065,30.3173696 59.0637065,29.825476 59.0637065,29.825476 L59.3559326,28.537213 C59.0885699,26.3667641 60.0637065,25.8018899 60.0167671,25.0039208 C59.9698278,24.2059517 60.8004628,21.8600006 60.8004628,21.8600006 Z M41.8889777,40.5175645 C41.8889777,40.5175645 45.1512632,40.0716406 46.5829137,40.3767464 C48.0380339,40.705322 49.4696844,45.0941522 49.4696844,45.0941522 L47.5217009,44.7186373 L47.5686403,44.2023043 C47.6155797,43.5920927 47.4043525,42.1369725 46.9114892,41.6910485 C46.418626,41.2451246 46.3482169,41.1981853 46.3482169,41.1981853 L41.935917,41.2451246 L41.8889777,40.5175645 Z M77.5108752,19.6286509 L83.1201288,21.8113311 C83.1201288,22.7266487 83.1201288,21.8113311 84.50484,22.4919519 C85.8895511,23.1725726 84.8803549,32.1614602 84.9977033,33.5931107 C85.1385214,35.0247612 85.7252634,37.0666234 85.7252634,37.0666234 L85.7722027,43.0748615 L84.9038245,39.6248185 C85.678324,43.262619 85.6313846,46.9473588 85.6313846,46.9473588 L84.2936129,52.7443698 C83.6834012,51.8994613 79.1772225,51.4065981 79.435389,52.0872188 L79.6231465,52.6035518 C78.8721167,52.0168097 78.4261928,52.1106885 79.36498,51.0310832 C80.3037672,49.9280082 79.7639646,47.4636918 79.7639646,47.4636918 C80.2568278,47.0647072 80.5149943,46.5483742 80.5149943,46.5483742 L79.7639646,47.2055253 L79.6466162,45.2340721 C79.6466162,45.2340721 79.9986614,43.0748615 79.9751917,41.6901504 L79.7639646,33.2410655 L80.6323427,29.2277501 L82.8619624,27.5614028 L80.7027518,28.9226443 L80.608873,27.6083422 L79.3884497,33.2410655 C79.3884497,33.2410655 79.6935555,40.4227877 79.7170252,41.6901504 C79.7170252,42.9340435 79.3415103,45.2340721 79.3415103,45.2340721 L79.2945709,47.299404 L78.3557837,47.886146 L79.4119193,47.6045098 C80.1394794,49.6229023 79.2241619,50.8433257 79.2241619,50.8433257 C77.6986327,52.0637491 79.36498,52.6739608 79.36498,52.6739608 C78.3088444,53.8474448 79.1772225,55.1617469 79.1772225,55.1617469 L73.708787,58.752608 L71.9720307,56.9689123 L69.9771079,49.0126907 C69.1321994,46.0789806 69.6485323,41.3146355 69.6485323,41.3146355 C76.3843306,31.7859453 77.6516933,26.669555 77.6516933,26.669555 L76.2200428,24.4164657 L78.0506779,24.0174811 L77.5108752,19.6286509 Z M69.3434265,45.4922386 C69.1087297,47.8626763 71.7608036,57.1332001 71.7608036,57.1332001 L73.5914386,59.0107745 L73.1455147,62.5546962 L74.1781806,63.2353169 L74.4598168,62.2965297 L74.9996194,63.6343015 L80.3272369,59.3628197 L80.022131,65.8404515 C80.608873,66.4271935 80.468055,77.5283523 80.5149943,78.208973 C80.5619337,78.8661241 79.7874342,90.8826004 79.7874342,90.8826004 L78.8017077,92.9948716 L79.6466162,92.1264935 L79.6935555,96.1867482 L77.2761784,95.2714306 L73.9200141,95.31837 L73.3802115,94.6142796 L73.3802115,92.1734328 L75.6567705,82.1049399 L73.0985753,90.9764791 C73.0985753,90.9764791 72.6526514,77.035489 72.6995908,76.3079289 C72.7465301,75.6038385 71.9016216,62.6485749 71.9016216,62.6485749 L72.605712,63.6812409 C71.1271222,58.9638351 69.2495478,56.8515639 69.2495478,56.8515639 C69.2495478,56.8515639 70.8220163,60.3485463 71.361819,61.3342728 C71.9016216,62.3199994 68.7097451,76.5426257 68.7097451,76.5426257 C69.1087297,77.1763071 67.1372765,87.5499058 67.1372765,87.5499058 L66.9964584,96.7265508 L63.9923394,96.0928694 L60.3545389,93.7459014 L60.9882203,90.694843 C60.9882203,90.694843 61.4810836,86.1651946 61.1290384,84.1702718 C60.7769932,82.1988187 62.5606889,75.0640358 62.5606889,75.0640358 L63.3351883,63.962877 L62.2086437,74.1956577 C61.7627197,69.2200854 62.3494617,61.0761064 62.3494617,61.0761064 C60.7769932,59.2454713 61.5280229,58.3770931 61.5280229,58.3770931 C63.3821277,58.5179112 66.9964584,46.8300104 66.9964584,46.8300104 L69.3434265,45.4922386 Z M79.6231465,52.0637491 L81.2190847,52.1576278 L80.2802975,52.8147789 L80.2802975,54.715823 L79.2476316,54.6688836 C78.6608896,53.6596874 79.4823284,52.8147789 79.4823284,52.8147789 L79.8109039,52.6739608 L79.6231465,52.0637491 Z M81.3364331,54.4576565 L84.3874916,54.6923533 L84.2936129,53.3780512 L84.2701432,52.7913092 C84.2701432,52.7913092 85.021173,54.6688836 84.3640219,55.7954283 C83.6834012,56.9219729 83.3078863,57.8842298 81.4303119,58.1893357 C79.5527374,58.4709718 80.1394794,56.4291096 80.1394794,56.4291096 C80.1394794,56.4291096 79.7170252,58.2597447 82.1344023,57.6730027 C82.1344023,57.6730027 83.6129921,56.6638065 84.2232038,55.0443985 L81.2660241,54.9505198 L81.3364331,54.4576565 Z M60.2606602,93.9101892 C61.598432,94.5438705 63.5698851,96.1867482 64.015809,96.2806269 L66.9964584,96.8908386 L66.9025797,97.8765651 L65.118884,97.9704439 L64.4852027,97.9704439 L63.5229458,97.2663534 L61.668841,97.4306412 C57.4912379,98.181671 56.2708145,97.3367625 56.2708145,97.3367625 C56.2708145,97.3367625 55.5667241,95.5765365 56.3177539,95.2244913 C57.0922533,94.8489764 61.1290384,95.0836732 61.1290384,95.0836732 L60.2606602,93.9101892 Z M74.0138929,95.4122487 L77.2527088,95.4826577 L79.7170252,96.3979753 L79.3415103,97.2194141 L79.6231465,98.6980039 C76.6190274,99.871488 74.2720594,98.9327008 74.2720594,98.9327008 C71.4556977,97.5245199 74.811862,96.5857327 74.811862,96.5857327 L74.0138929,95.4122487 Z"/>
        {/* </g> */}
        </g>
        </svg>