<svg xmlns="http://www.w3.org/2000/svg" version="1.1" viewBox="-5.0 -10.0 110.0 135.0">
 <path d="m27.281 38.297 16.578-7.5312c-0.0625-0.35156-0.10938-0.70703-0.10938-1.0781 0-0.86328 0.69922-1.5625 1.5625-1.5625 0.76953 0 1.375 0.5625 1.5078 1.293l2.5391-1.1523c0.78125-0.35938 1.7031-0.015625 2.0625 0.78125 0.35938 0.78125 0.015625 1.7031-0.78125 2.0625l-2.4531 1.1133c0.51172 0.36719 1.1367 0.58984 1.8125 0.58984 1.7227 0 3.125-1.4023 3.125-3.125s-1.4023-3.125-3.125-3.125c-0.86328 0-1.5625-0.69922-1.5625-1.5625v-3.125h-1.5625c-0.41406 0-0.8125-0.16406-1.1055-0.45703l-7.8125-7.8125c-0.40234-0.40234-0.55469-0.98828-0.39844-1.5352l1.0625-3.7148 10.512 7.0078c0.26563 0.17969 0.56641 0.26172 0.86328 0.26172 0.50391 0 1-0.24219 1.3008-0.69531 0.48047-0.71875 0.28516-1.6875-0.43359-2.168l-11.344-7.5625 1.1602-4.0664c0.070312-0.25 0.21484-0.45703 0.38672-0.63281l20.047 14.031-6.8867 6.8867c-0.29297 0.29297-0.69141 0.45703-1.1055 0.45703h-1.5625v1.7617c2.6914 0.69531 4.6875 3.1445 4.6875 6.0508 0 0.36719-0.046875 0.72266-0.10938 1.0742l16.578 7.5352c-0.4375 0.9375-0.71875 1.9688-0.79688 3.0625l-17.082-7.7656c-1.1484 1.418-2.8789 2.3438-4.8398 2.3438-1.9609 0-3.6914-0.92578-4.8359-2.3398l-17.086 7.7617c-0.078125-1.0938-0.35938-2.125-0.79688-3.0625zm32.035-37.164c-0.19141-0.67187-0.80469-1.1328-1.5039-1.1328h-12.008l16.484 11.539zm-34.316 41.055c0-3.4531-2.7969-6.25-6.25-6.25s-6.25 2.7969-6.25 6.25v1.5625h12.5zm62.5 0c0-3.4531-2.7969-6.25-6.25-6.25s-6.25 2.7969-6.25 6.25v1.5625h12.5zm-54.688 39.062h3.125v-15.625h-3.125zm15.625 0h3.125v-15.625h-3.125zm15.625 0h3.125v-15.625h-3.125zm15.625 0h3.125v-15.625h-3.125zm17.188-34.375h-93.75c-0.86328 0-1.5625 0.69922-1.5625 1.5625v4.6875c0 0.86328 0.69922 1.5625 1.5625 1.5625h93.75c0.86328 0 1.5625-0.69922 1.5625-1.5625v-4.6875c0-0.86328-0.69922-1.5625-1.5625-1.5625zm0 45.312h-93.75c-0.86328 0-1.5625 0.69922-1.5625 1.5625v4.6875c0 0.86328 0.69922 1.5625 1.5625 1.5625h93.75c0.86328 0 1.5625-0.69922 1.5625-1.5625v-4.6875c0-0.86328-0.69922-1.5625-1.5625-1.5625zm-3.125-34.375v31.25h-87.5v-31.25zm-70.312 6.25c0-0.86328-0.69922-1.5625-1.5625-1.5625h-6.25c-0.86328 0-1.5625 0.69922-1.5625 1.5625v18.75c0 0.86328 0.69922 1.5625 1.5625 1.5625h6.25c0.86328 0 1.5625-0.69922 1.5625-1.5625zm15.625 0c0-0.86328-0.69922-1.5625-1.5625-1.5625h-6.25c-0.86328 0-1.5625 0.69922-1.5625 1.5625v18.75c0 0.86328 0.69922 1.5625 1.5625 1.5625h6.25c0.86328 0 1.5625-0.69922 1.5625-1.5625zm15.625 0c0-0.86328-0.69922-1.5625-1.5625-1.5625h-6.25c-0.86328 0-1.5625 0.69922-1.5625 1.5625v18.75c0 0.86328 0.69922 1.5625 1.5625 1.5625h6.25c0.86328 0 1.5625-0.69922 1.5625-1.5625zm15.625 0c0-0.86328-0.69922-1.5625-1.5625-1.5625h-6.25c-0.86328 0-1.5625 0.69922-1.5625 1.5625v18.75c0 0.86328 0.69922 1.5625 1.5625 1.5625h6.25c0.86328 0 1.5625-0.69922 1.5625-1.5625zm15.625 0c0-0.86328-0.69922-1.5625-1.5625-1.5625h-6.25c-0.86328 0-1.5625 0.69922-1.5625 1.5625v18.75c0 0.86328 0.69922 1.5625 1.5625 1.5625h6.25c0.86328 0 1.5625-0.69922 1.5625-1.5625zm-68.75 17.188h3.125v-15.625h-3.125z"/>
<text x="0.0" y="117.5" font-size="5.0" font-weight="bold" font-family="Arbeit Regular, Helvetica, Arial-Unicode, Arial, Sans-serif" fill="#000000">Created by Kmg Design</text><text x="0.0" y="122.5" font-size="5.0" font-weight="bold" font-family="Arbeit Regular, Helvetica, Arial-Unicode, Arial, Sans-serif" fill="#000000">from Noun Project</text></svg>