<svg xmlns="http://www.w3.org/2000/svg" viewBox="0 0 512 640" x="0px" y="0px"><title>Air freight icon</title><desc>Air freight icon for website, application, printing, document, poster design, etc.</desc><metadata><?xpacket begin="&#65279;" id="W5M0MpCehiHzreSzNTczkc9d"?><x:xmpmeta xmlns:x="adobe:ns:meta/" x:xmptk="Adobe XMP Core 5.6-c145 79.162955, 2018/05/10-01:07:16        "/><?xpacket end="w"?></metadata><path d="M112,232a48,48,0,1,0,48,48A48.055,48.055,0,0,0,112,232Zm0,80a32,32,0,1,1,32-32A32.036,32.036,0,0,1,112,312Z"/><rect x="176" y="464" width="160" height="16"/><circle cx="112" cy="280" r="16"/><polygon points="194.084 328 296 448 317.916 448 216 328 194.084 328"/><path d="M184,192H40.69A8.7,8.7,0,0,0,32,200.687a8.956,8.956,0,0,0,7.935,8.672L184,221.884Z"/><path d="M388.873,115.134a137.02,137.02,0,0,1,13.433-10.691A183.9,183.9,0,0,0,264,32.177V48.2a165.026,165.026,0,0,1,124.873,66.937Z"/><rect x="264" y="232" width="48" height="48"/><rect x="200" y="232" width="48" height="48"/><rect x="200" y="168" width="48" height="48"/><rect x="264" y="168" width="48" height="48"/><rect x="480" y="424" width="16" height="16"/><rect x="480" y="352" width="16" height="56"/><rect x="472" y="152" width="24" height="16"/><path d="M480,96a120,120,0,0,0,0,240h16V311.42a56.68,56.68,0,0,1-8,.58,56,56,0,0,1,0-112,56.68,56.68,0,0,1,8,.58V184H464.985l-31.045,7.761a8,8,0,0,1-5.518-.606l-16-8A8,8,0,0,1,408,176V144a8,8,0,0,1,8-8h80V96Z"/><polygon points="432.931 175.521 456 169.754 456 152 424 152 424 171.056 432.931 175.521"/><path d="M448,400a16.019,16.019,0,0,0-16,16v48a16,16,0,0,0,32,0V416A16.019,16.019,0,0,0,448,400Z"/><rect x="176" y="296" width="160" height="16"/><path d="M328,192v42.407l17.464,1.52A136.62,136.62,0,0,1,346.121,192Z"/><path d="M496,216.8a40,40,0,1,0,0,78.4Z"/><polygon points="276 377.353 317.916 328 296 328 265.042 364.451 276 377.353"/><polygon points="236 398.647 194.084 448 216 448 246.958 411.549 236 398.647"/><text x="0" y="527" fill="#000000" font-size="5px" font-weight="bold" font-family="'Helvetica Neue', Helvetica, Arial-Unicode, Arial, Sans-serif">Created by monkik</text><text x="0" y="532" fill="#000000" font-size="5px" font-weight="bold" font-family="'Helvetica Neue', Helvetica, Arial-Unicode, Arial, Sans-serif">from the Noun Project</text></svg>