<svg xmlns="http://www.w3.org/2000/svg" version="1.1" viewBox="-5.0 -10.0 110.0 135.0">
 <path d="m64.023 16.004h11.379v13.273h-11.379z"/>
 <path d="m24.598 16.004h11.379v13.273h-11.379z"/>
 <path d="m39.297 7.332h21.406v7.5859h-21.406z"/>
 <path d="m73.035 45.438 10.094 3.9531v-19.027h-10.094z"/>
 <path d="m26.965 30.363h-10.094v19.027l10.094-3.9492z"/>
 <path d="m28.051 45.016 12.938-5.0703v-9.582h-12.938z"/>
 <path d="m49.805 36.492c0.015624-0.003907 0.023437-0.011719 0.039062-0.011719 0.015625-0.007813 0.027344-0.011719 0.039062-0.011719 0.015626-0.003906 0.023438-0.007812 0.039063-0.007812 0.078125-0.015626 0.16016-0.007813 0.23438 0.019531 0.015625 0 0.027344 0.007812 0.039062 0.011719l7.7266 3.0234v-9.1523h-15.848v9.1562z"/>
 <path d="m59.012 39.945 12.934 5.0664v-14.648h-12.934z"/>
 <path d="m37.062 16.004h25.875v13.273h-25.875z"/>
 <path d="m99.277 88.172c-1.6914 0-2.5703 0.97656-3.2773 1.7656-0.64453 0.72266-1.1523 1.2852-2.1992 1.2852s-1.5586-0.56641-2.1992-1.2852c-0.71094-0.78516-1.5859-1.7656-3.2773-1.7656-1.6914 0-2.5703 0.97656-3.2773 1.7656-0.64453 0.72266-1.1523 1.2852-2.1992 1.2852s-1.5547-0.56641-2.1992-1.2852c-0.70703-0.78516-1.5859-1.7656-3.2773-1.7656s-2.5703 0.97656-3.2734 1.7656c-0.64453 0.71875-1.1562 1.2812-2.1992 1.2812-1.0469 0-1.5547-0.56641-2.1992-1.2812-0.70703-0.78906-1.5859-1.7656-3.2773-1.7656s-2.5703 0.97656-3.2773 1.7656c-0.64062 0.71875-1.1523 1.2812-2.1953 1.2812-1.0469 0-1.5586-0.56641-2.1992-1.2812-0.70703-0.78906-1.5859-1.7656-3.2773-1.7656s-2.5664 0.97656-3.2734 1.7656c-0.64453 0.71875-1.1562 1.2812-2.1992 1.2812-1.0469 0-1.5547-0.56641-2.1992-1.2812-0.70703-0.78906-1.5859-1.7656-3.2773-1.7656-1.6914 0-2.5664 0.97656-3.2734 1.7656-0.64453 0.71875-1.1562 1.2812-2.1992 1.2812-1.0469 0-1.5547-0.56641-2.1992-1.2812-0.70703-0.78906-1.582-1.7656-3.2734-1.7656s-2.5703 0.97656-3.2773 1.7656c-0.64062 0.71875-1.1523 1.2812-2.1953 1.2812-1.0469 0-1.5586-0.56641-2.1992-1.2812-0.70703-0.78906-1.5859-1.7656-3.2773-1.7656s-2.5703 0.97656-3.2734 1.7656c-0.64453 0.71875-1.1562 1.2812-2.1992 1.2812-1.0469 0-1.5547-0.56641-2.1992-1.2812-0.70703-0.78906-1.5859-1.7656-3.2773-1.7656-1.6914 0-2.5664 0.97656-3.2734 1.7656-0.64453 0.71875-1.1562 1.2812-2.1992 1.2812-1.0469 0-1.5547-0.56641-2.1992-1.2812-0.70703-0.78906-1.582-1.7656-3.2773-1.7656-0.40625 0-0.73047 0.32422-0.73047 0.72266 0 0.40234 0.32422 0.72266 0.72266 0.72266 1.0469 0 1.5547 0.57031 2.1992 1.2852 0.70703 0.78516 1.5859 1.7656 3.2773 1.7656 1.6914 0 2.5664-0.97656 3.2734-1.7656 0.64453-0.71875 1.1562-1.2852 2.1992-1.2852 1.0469 0 1.5547 0.57031 2.1992 1.2852 0.70703 0.78516 1.5859 1.7656 3.2773 1.7656 1.6914 0 2.5664-0.97656 3.2734-1.7656 0.64453-0.71875 1.1523-1.2852 2.1992-1.2852s1.5547 0.57031 2.1992 1.2852c0.70703 0.78516 1.582 1.7656 3.2773 1.7656 1.6914 0 2.5664-0.97656 3.2734-1.7656 0.64453-0.71875 1.1523-1.2852 2.1992-1.2852 1.043 0 1.5547 0.57031 2.1953 1.2852 0.70703 0.78516 1.5859 1.7656 3.2773 1.7656 1.6914 0 2.5664-0.97656 3.2734-1.7656 0.64453-0.71875 1.1562-1.2852 2.1992-1.2852 1.0469 0 1.5547 0.57031 2.1992 1.2852 0.70703 0.78516 1.5859 1.7656 3.2773 1.7656 1.6914 0 2.5664-0.97656 3.2734-1.7656 0.64453-0.71875 1.1523-1.2852 2.1992-1.2852s1.5547 0.57031 2.1992 1.2852c0.70703 0.78516 1.582 1.7656 3.2773 1.7656 1.6914 0 2.5664-0.97656 3.2734-1.7656 0.64453-0.71875 1.1523-1.2852 2.1992-1.2852 1.0469 0 1.5547 0.57031 2.1992 1.2852 0.70703 0.78516 1.5859 1.7656 3.2773 1.7656s2.5664-0.97656 3.2734-1.7656c0.64453-0.71875 1.1523-1.2852 2.1992-1.2852s1.5547 0.57031 2.1992 1.2852c0.70703 0.78516 1.5859 1.7656 3.2773 1.7656s2.5703-0.97656 3.2773-1.7656c0.64062-0.71875 1.1523-1.2852 2.1992-1.2852 1.043 0 1.5547 0.57031 2.1992 1.2852 0.70703 0.78516 1.5859 1.7656 3.2773 1.7656 1.6914 0 2.5703-0.97656 3.2773-1.7656 0.64063-0.71875 1.1523-1.2852 2.1992-1.2852 0.39844 0 0.72266-0.32422 0.72266-0.72266 0.007812-0.39844-0.31641-0.72266-0.71484-0.72266z"/>
 <path d="m0.72266 82.27c1.0469 0 1.5547 0.56641 2.1992 1.2812 0.70703 0.78906 1.5859 1.7656 3.2773 1.7656 1.6914 0 2.5664-0.97656 3.2734-1.7656 0.64453-0.71875 1.1562-1.2812 2.1992-1.2812 1.0469 0 1.5547 0.56641 2.1992 1.2812 0.70703 0.78906 1.5859 1.7656 3.2773 1.7656 1.6914 0 2.5664-0.97656 3.2734-1.7656 0.64453-0.71875 1.1523-1.2812 2.1992-1.2812s1.5547 0.56641 2.1992 1.2812c0.70703 0.78906 1.582 1.7656 3.2773 1.7656 1.6914 0 2.5664-0.98047 3.2734-1.7656 0.64453-0.71875 1.1523-1.2812 2.1992-1.2812 1.043 0 1.5547 0.56641 2.1953 1.2812 0.70703 0.78516 1.5859 1.7656 3.2773 1.7656 1.6914 0 2.5664-0.97656 3.2734-1.7656 0.64453-0.71875 1.1562-1.2812 2.1992-1.2812 1.0469 0 1.5547 0.56641 2.1992 1.2812 0.70703 0.78906 1.5859 1.7656 3.2773 1.7656 1.6914 0 2.5664-0.98047 3.2734-1.7656 0.64453-0.71875 1.1523-1.2812 2.1992-1.2812s1.5547 0.56641 2.1992 1.2812c0.70703 0.78906 1.582 1.7656 3.2773 1.7656 1.6914 0 2.5664-0.97656 3.2734-1.7656 0.64453-0.71875 1.1523-1.2812 2.1992-1.2812 1.0469 0 1.5547 0.56641 2.1992 1.2812 0.70703 0.78906 1.5859 1.7656 3.2773 1.7656s2.5664-0.97656 3.2734-1.7656c0.64453-0.71875 1.1523-1.2812 2.1992-1.2812s1.5547 0.56641 2.1992 1.2812c0.70703 0.78906 1.5859 1.7656 3.2773 1.7656s2.5703-0.97656 3.2773-1.7656c0.64062-0.71875 1.1523-1.2812 2.1992-1.2812 1.043 0 1.5547 0.56641 2.1992 1.2812 0.70703 0.78906 1.5859 1.7656 3.2773 1.7656 1.6914 0 2.5703-0.97656 3.2773-1.7656 0.64063-0.71875 1.1523-1.2812 2.1992-1.2812 0.39844 0 0.72266-0.32422 0.72266-0.72266s-0.32422-0.72266-0.72266-0.72266c-1.6914 0-2.5703 0.97656-3.2773 1.7656-0.64453 0.71875-1.1523 1.2852-2.1992 1.2852s-1.5586-0.57031-2.1992-1.2852c-0.71094-0.78516-1.5859-1.7656-3.2773-1.7656s-2.5703 0.97656-3.2773 1.7656c-0.64453 0.71875-1.1523 1.2852-2.1992 1.2852s-1.5547-0.57031-2.1992-1.2852c-0.21484-0.23828-0.44141-0.49219-0.70703-0.73438l-0.14453 0.51953c-0.070312 0.23828-0.28516 0.39844-0.52344 0.39844-0.046875 0-0.09375-0.007813-0.14453-0.019532-0.28906-0.082031-0.45703-0.37891-0.375-0.67188l0.24609-0.89062 8.0625-29.094-3.5977-1.4102-11.18-4.3789-14.02-5.4922-7.7148-3.0195v46.012c-0.16797 0.039062-0.34766 0.0625-0.54688 0.0625-0.19922 0-0.375-0.023438-0.53906-0.058594v-46.016l-7.7148 3.0195-25.203 9.8711-3.5938 1.4102 8.0625 29.086 0.24609 0.89453c0.078125 0.28906-0.089844 0.58594-0.37891 0.67188-0.28516 0.078125-0.58594-0.089844-0.66797-0.37891l-0.14453-0.52344c-0.26953 0.23828-0.5 0.49609-0.71484 0.73828-0.64453 0.71875-1.1562 1.2852-2.1992 1.2852-1.0469 0-1.5547-0.57031-2.1992-1.2852-0.70703-0.78516-1.5859-1.7656-3.2773-1.7656s-2.5664 0.97656-3.2734 1.7656c-0.64453 0.71875-1.1562 1.2852-2.1992 1.2852-1.0469 0-1.5547-0.57031-2.1992-1.2852-0.70703-0.78516-1.582-1.7656-3.2773-1.7656-0.39844 0-0.72266 0.32813-0.72266 0.72656s0.32422 0.72266 0.72266 0.72266zm57.734-27.113c1.1133-1.1133 2.6211-1.4023 3.3789-0.64844 0.75391 0.75781 0.46484 2.2656-0.64844 3.3789s-2.6211 1.4023-3.375 0.64453c-0.75391-0.75-0.46875-2.2617 0.64453-3.375zm-20.289-0.64844c0.75391-0.75391 2.2656-0.46484 3.375 0.64844 1.1133 1.1133 1.4023 2.6211 0.64844 3.375-0.75781 0.75781-2.2656 0.46875-3.3789-0.64453-1.1133-1.1094-1.4023-2.6211-0.64453-3.3789z"/>
<text x="0.0" y="117.5" font-size="5.0" font-weight="bold" font-family="Arbeit Regular, Helvetica, Arial-Unicode, Arial, Sans-serif" fill="#000000">Created by ABDUL LATIF</text><text x="0.0" y="122.5" font-size="5.0" font-weight="bold" font-family="Arbeit Regular, Helvetica, Arial-Unicode, Arial, Sans-serif" fill="#000000">from Noun Project</text></svg>