<svg xmlns="http://www.w3.org/2000/svg" viewBox="0 0 64 80" x="0px" y="0px"><title>_</title><g><path d="M18.02344,37.69971l-.46192-1.01758a.99954.99954,0,0,1,1.82032-.82617l.46191,1.01758A.99954.99954,0,0,1,18.02344,37.69971Z"/><path d="M22.21289,46.93213l-2.94141-6.48145a.99954.99954,0,0,1,1.82032-.82617L24.0332,46.104A1,1,0,0,1,22.21289,46.93213Z"/><path d="M25.44043,29.7749l3.12012-1.91308a.99992.99992,0,0,1,1.04492,1.70507L26.48535,31.48A.99991.99991,0,0,1,25.44043,29.7749Z"/><path d="M38.12109,31.48,35.001,29.56689a.99993.99993,0,0,1,1.04492-1.70507L39.166,29.7749A.99993.99993,0,0,1,38.12109,31.48Z"/><path d="M58.875,51.28564c-2.76481,0-2.91833-3.22558-6.71582-3.22558-3.80842,0-3.94368,3.22558-6.71582,3.22558a2.87594,2.87594,0,0,1-2.00543-.7323l6.74273-14.85656a3.0065,3.0065,0,0,0-1.168-3.79981L46.875,30.5907c0-.45424.0566-5.45923-.0921-5.87634.15067-.42264.0921-8.05131.0921-8.5a1.50164,1.50164,0,0,0-1.5-1.5H40.02051v-7.5a1.50164,1.50164,0,0,0-1.5-1.5h-12.875a1.50164,1.50164,0,0,0-1.5,1.5v7.5H18.625a1.50164,1.50164,0,0,0-1.5,1.5c0,.44869-.05857,8.07736.0921,8.5-.1487.41711-.0921,5.42235-.0921,5.87658l-2.13867,1.307a3.00418,3.00418,0,0,0-1.166,3.79883l6.74732,14.86773a2.87315,2.87315,0,0,1-1.99341.72113c-2.76966,0-2.92187-3.22558-6.72461-3.22558-3.806,0-3.94974,3.22558-6.72461,3.22558a1,1,0,0,0,0,2c3.806,0,3.94974-3.22558,6.72461-3.22558,2.76966,0,2.92187,3.22558,6.72461,3.22558,3.80722,0,3.946-3.22558,6.7207-3.22558,2.76062,0,2.91638,3.22558,6.71387,3.22558,3.80317,0,3.94752-3.22558,6.71777-3.22558,2.76755,0,2.91583,3.22558,6.7168,3.22558,3.79649,0,3.94851-3.22558,6.71582-3.22558,2.764,0,2.91655,3.22558,6.71582,3.22558A1,1,0,0,0,58.875,51.28564ZM38.8949,25.71436H44.875v3.65423Zm5.9801-2H35.62189A23.81567,23.81567,0,0,0,33,22.21136v-5.497H44.875Zm-18.72949-16h11.875v7h-11.875Zm-7.02051,9H31V22.211a23.76411,23.76411,0,0,0-2.62262,1.50336H19.125Zm0,9h5.97968L19.125,29.36871ZM32.00879,51.28564c-2.76481,0-2.91638-3.22558-6.71387-3.22558a4.84516,4.84516,0,0,0-3.16723,1.10455l-6.48609-14.294a1.00206,1.00206,0,0,1,.38867-1.26661l15.44727-9.44043a1.00322,1.00322,0,0,1,1.04394,0L47.96875,33.603a1.00438,1.00438,0,0,1,.39063,1.26758L41.87805,49.1532a4.83712,4.83712,0,0,0-3.15149-1.09314C34.92087,48.06006,34.78229,51.28564,32.00879,51.28564Z"/><path d="M58.875,58.28564c-3.80842,0-3.94368-3.22558-6.71582-3.22558-2.76481,0-2.91833,3.22558-6.71582,3.22558-3.80055,0-3.94813-3.22558-6.7168-3.22558-2.76508,0-2.91709,3.22558-6.71777,3.22558-3.801,0-3.94791-3.22558-6.71387-3.22558-2.76713,0-2.92143,3.22558-6.7207,3.22558-3.806,0-3.94974-3.22558-6.72461-3.22558-2.76966,0-2.92187,3.22558-6.72461,3.22558a1,1,0,0,1,0-2c2.76966,0,2.92187-3.22558,6.72461-3.22558,3.806,0,3.94974,3.22558,6.72461,3.22558,2.76713,0,2.92143-3.22558,6.7207-3.22558,3.799,0,3.94568,3.22558,6.71387,3.22558,2.76583,0,2.91887-3.22558,6.71777-3.22558,3.80056,0,3.94813,3.22558,6.7168,3.22558,2.764,0,2.91655-3.22558,6.71582-3.22558,3.79649,0,3.94851,3.22558,6.71582,3.22558A1,1,0,0,1,58.875,58.28564Z"/><path d="M27,12.06885v-2a1,1,0,0,1,2,0v2A1,1,0,0,1,27,12.06885Z"/><path d="M31,12.06885v-2a1,1,0,0,1,2,0v2A1,1,0,0,1,31,12.06885Z"/><path d="M35,12.06885v-2a1,1,0,0,1,2,0v2A1,1,0,0,1,35,12.06885Z"/><path d="M34,21.13135v-2a1,1,0,0,1,2,0v2A1,1,0,0,1,34,21.13135Z"/><path d="M38,21.13135v-2a1,1,0,0,1,2,0v2A1,1,0,0,1,38,21.13135Z"/><path d="M42,21.13135v-2a1,1,0,0,1,2,0v2A1,1,0,0,1,42,21.13135Z"/><path d="M20,21.13135v-2a1,1,0,0,1,2,0v2A1,1,0,0,1,20,21.13135Z"/><path d="M24,21.13135v-2a1,1,0,0,1,2,0v2A1,1,0,0,1,24,21.13135Z"/><path d="M28,21.13135v-2a1,1,0,0,1,2,0v2A1,1,0,0,1,28,21.13135Z"/></g><text x="0" y="79" fill="#000000" font-size="5px" font-weight="bold" font-family="'Helvetica Neue', Helvetica, Arial-Unicode, Arial, Sans-serif">Created by Andy Horvath</text><text x="0" y="84" fill="#000000" font-size="5px" font-weight="bold" font-family="'Helvetica Neue', Helvetica, Arial-Unicode, Arial, Sans-serif">from the Noun Project</text></svg>