<svg xmlns="http://www.w3.org/2000/svg" data-name="Layer 1" viewBox="0 0 64 80" x="0px" y="0px"><path d="M3,62H35a1,1,0,0,0,1-1V47a1,1,0,0,0-1-1H28V33a1,1,0,0,0-1-1H11a1,1,0,0,0-1,1V46H3a1,1,0,0,0-1,1V61A1,1,0,0,0,3,62Zm31-2H20V48h4v5a1,1,0,0,0,1,1h4a1,1,0,0,0,1-1V48h4ZM26,48h2v4H26ZM18,34h2v4H18Zm-6,0h4v5a1,1,0,0,0,1,1h4a1,1,0,0,0,1-1V34h4V46H12ZM10,48h2v4H10ZM4,48H8v5a1,1,0,0,0,1,1h4a1,1,0,0,0,1-1V48h4V60H4Z"/><path d="M61,2H23a1,1,0,0,0-1,1V6H19a1,1,0,0,0-1,1V30h2V8H56V60H38v2H57a1,1,0,0,0,1-1V58h3a1,1,0,0,0,1-1V3A1,1,0,0,0,61,2ZM60,56H58V7a1,1,0,0,0-1-1H24V4H60Z"/><path d="M38,10A10,10,0,1,0,48,20,10,10,0,0,0,38,10Zm4,9a24.47,24.47,0,0,0-.24-2.74,9.72,9.72,0,0,0,2.4-1.38A7.9,7.9,0,0,1,45.93,19Zm-1.22-6.5a8.34,8.34,0,0,1,1.89,1,8.58,8.58,0,0,1-1.31.76A11.35,11.35,0,0,0,40.76,12.5Zm-1.33,2.36a8.08,8.08,0,0,1-2.86,0C37.05,13,37.7,12,38,12S39,13,39.43,14.86Zm-4.77-.6a8.58,8.58,0,0,1-1.31-.76,8.34,8.34,0,0,1,1.89-1A11.35,11.35,0,0,0,34.66,14.26Zm.58,13.24a8.34,8.34,0,0,1-1.89-1,8.58,8.58,0,0,1,1.31-.76A11.35,11.35,0,0,0,35.24,27.5Zm1.33-2.36a8.08,8.08,0,0,1,2.86,0C39,27,38.3,28,38,28S37.05,27,36.57,25.14Zm4.77.6a7.83,7.83,0,0,1,1.31.76,8.34,8.34,0,0,1-1.89,1A11.35,11.35,0,0,0,41.34,25.74ZM39.8,23.18a10.36,10.36,0,0,0-3.6,0c-.08-.66-.15-1.38-.18-2.18h4C40,21.8,39.88,22.52,39.8,23.18ZM36,19c0-.8.1-1.52.18-2.18a9.09,9.09,0,0,0,3.6,0c.08.66.15,1.38.18,2.18Zm-4.16-4.12a10.1,10.1,0,0,0,2.4,1.38A24.47,24.47,0,0,0,34,19h-4A7.9,7.9,0,0,1,31.86,14.88ZM30.07,21h4a24.47,24.47,0,0,0,.24,2.74,9.9,9.9,0,0,0-2.4,1.38A7.9,7.9,0,0,1,30.07,21Zm14.07,4.12a10.1,10.1,0,0,0-2.4-1.38A24.47,24.47,0,0,0,42,21h4A7.9,7.9,0,0,1,44.14,25.12Z"/><rect x="30" y="32" width="24" height="2"/><rect x="30" y="36" width="24" height="2"/><rect x="30" y="40" width="24" height="2"/><rect x="38" y="44" width="16" height="2"/><rect x="38" y="48" width="16" height="2"/><rect x="38" y="52" width="16" height="2"/><rect x="38" y="56" width="16" height="2"/><text x="0" y="79" fill="#000000" font-size="5px" font-weight="bold" font-family="'Helvetica Neue', Helvetica, Arial-Unicode, Arial, Sans-serif">Created by Studio 365</text><text x="0" y="84" fill="#000000" font-size="5px" font-weight="bold" font-family="'Helvetica Neue', Helvetica, Arial-Unicode, Arial, Sans-serif">from the Noun Project</text></svg>