<svg xmlns="http://www.w3.org/2000/svg" version="1.1" viewBox="-5.0 -10.0 110.0 135.0">
 <path d="m41.203 9.5625c-0.019531-1.3984-0.58984-2.6602-1.5078-3.5742-0.90625-0.90234-2.1562-1.4609-3.5391-1.4609s-2.6328 0.55469-3.5312 1.457c-0.90625 0.91016-1.4688 2.1641-1.4688 3.5508 0 1.0508-0.84766 1.9023-1.8984 1.9062l-4.8008 0.019532v0.007812c-0.33984 0-0.65234 0.14062-0.87891 0.36719-0.22656 0.22656-0.36719 0.53906-0.36719 0.87891v6.7695h25.891v-6.7695c0-0.33984-0.14062-0.65234-0.36719-0.87891-0.22656-0.22656-0.53906-0.36719-0.87891-0.36719-0.058594 0-0.11719-0.003906-0.17578-0.007812l-4.5742-0.019532c-1.0469 0-1.8906-0.83984-1.9023-1.8789zm-2.5781 5.2539c-0.63281 0.63281-1.5039 1.0234-2.4688 1.0234s-1.8359-0.39062-2.4688-1.0234c-0.63281-0.63281-1.0234-1.5039-1.0234-2.4688s0.39063-1.8359 1.0234-2.4688c0.63281-0.63281 1.5039-1.0234 2.4688-1.0234s1.8359 0.39062 2.4688 1.0234c0.63281 0.63281 1.0234 1.5039 1.0234 2.4688-0.003907 0.96094-0.39453 1.8359-1.0234 2.4688zm-15.121 31.797h-3.4688v3.4688h3.4688zm-5.3828-3.8242h7.2969c1.0547 0 1.9141 0.85547 1.9141 1.9141v7.293c0 1.0547-0.85547 1.9141-1.9141 1.9141h-7.293c-1.0547 0-1.9141-0.85547-1.9141-1.9141v-7.293c-0.003907-1.0586 0.85547-1.9141 1.9102-1.9141zm5.3828 18.516h-3.4688v3.4688h3.4688zm-5.3828-3.8281h7.2969c1.0547 0 1.9141 0.85547 1.9141 1.9141v7.293c0 1.0547-0.85547 1.9141-1.9141 1.9141h-7.293c-1.0547 0-1.9141-0.85547-1.9141-1.9141v-7.293c-0.003907-1.0586 0.85547-1.9141 1.9102-1.9141zm13.812-24.43c-1.0547 0-1.9141-0.85547-1.9141-1.9141 0-1.0547 0.85547-1.9141 1.9141-1.9141h21.609c1.0547 0 1.9141 0.85547 1.9141 1.9141 0 1.0547-0.85547 1.9141-1.9141 1.9141zm0 5.0508c-1.0547 0-1.9141-0.85547-1.9141-1.9141 0-1.0547 0.85547-1.9141 1.9141-1.9141h21.609c1.0547 0 1.9141 0.85547 1.9141 1.9141 0 1.0547-0.85547 1.9141-1.9141 1.9141zm-14.785-3.0273c-0.75391-0.73437-0.77344-1.9414-0.039063-2.6992 0.73438-0.75391 1.9414-0.77344 2.6992-0.039063l1.1641 1.1367 3.125-2.9883c0.75781-0.73047 1.9688-0.70703 2.6992 0.050781s0.70703 1.9688-0.050781 2.6992l-4.4609 4.2695c-0.73828 0.71094-1.9141 0.71094-2.6523-0.007812zm14.301 12.664c-1.0547 0-1.9141-0.85547-1.9141-1.9141 0-1.0547 0.85547-1.9141 1.9141-1.9141h21.609c1.0547 0 1.9141 0.85547 1.9141 1.9141 0 1.0547-0.85547 1.9141-1.9141 1.9141zm0 5.0547c-1.0547 0-1.9141-0.85547-1.9141-1.9141 0-1.0547 0.85547-1.9141 1.9141-1.9141h21.609c1.0547 0 1.9141 0.85547 1.9141 1.9141 0 1.0547-0.85547 1.9141-1.9141 1.9141zm-0.48438 9.6367c-1.0547 0-1.9141-0.85547-1.9141-1.9141 0-1.0547 0.85547-1.9141 1.9141-1.9141h21.609c1.0586 0 1.9141 0.85547 1.9141 1.9141 0 1.0547-0.85547 1.9141-1.9141 1.9141zm0 5.0508c-1.0547 0-1.9141-0.85547-1.9141-1.9141 0-1.0547 0.85547-1.9141 1.9141-1.9141h16.57c1.0547 0 1.9141 0.85547 1.9141 1.9141 0 1.0547-0.85547 1.9141-1.9141 1.9141zm20.996 15.23v1.8711l-44.945 0.003906c-0.11328 0-0.21875-0.046875-0.29297-0.125-0.078125-0.078125-0.125-0.17969-0.125-0.29297v-68.129c0-0.11328 0.046875-0.21484 0.125-0.29297 0.074219-0.078126 0.17969-0.125 0.29297-0.125h12.371v1.8711l-9.0039 0.003907c-1.0586 0-1.9141 0.85547-1.9141 1.9141v61.391c0 1.0586 0.85547 1.9141 1.9141 1.9141zm8.0547-20.809-6.7305 2.6562c-0.76953 0.24609-1.3242 0.96875-1.3242 1.8203v12.508h-39.668v-57.566h7.0898v0.089844c0 1.0547 0.85547 1.9141 1.9141 1.9141h29.719c1.0547 0 1.9141-0.85547 1.9141-1.9141v-0.089844h7.0898zm5.6992-2.25v-43.613c0-0.11328-0.046875-0.21484-0.125-0.29297-0.074219-0.078126-0.17969-0.125-0.29297-0.125h-12.367v1.8711h9.0039c1.0547 0 1.9141 0.85547 1.9141 1.9141v40.984zm6.9688 35.824v-19.621l-16.895-6.668v19.617zm7.0703-25.008-12.711-5.0156c-0.078125-0.023438-0.15234-0.054688-0.22656-0.089844l-2.582-1.0195-1.4922 0.58984c-0.070313 0.035156-0.14844 0.0625-0.22266 0.085937l-3.4414 1.3594 15.52 6.125zm7.1133 1.2969 6.5352-2.5781v19.617l-16.895 6.668v-19.617l6.5352-2.5781v8.8594c0 1.0586 0.85547 1.9141 1.9141 1.9141 1.0547 0 1.9141-0.85547 1.9141-1.9141v-10.371zm-17.324-9.4336v-0.082031l5.0547-1.9922 15.52 6.125-5.1602 2.0352z" fill-rule="evenodd"/>
<text x="0.0" y="117.5" font-size="5.0" font-weight="bold" font-family="Arbeit Regular, Helvetica, Arial-Unicode, Arial, Sans-serif" fill="#000000">Created by M. Agil Ronggo Mustofa</text><text x="0.0" y="122.5" font-size="5.0" font-weight="bold" font-family="Arbeit Regular, Helvetica, Arial-Unicode, Arial, Sans-serif" fill="#000000">from Noun Project</text></svg>