<svg xmlns="http://www.w3.org/2000/svg" xmlns:xlink="http://www.w3.org/1999/xlink" version="1.1" x="0px" y="0px" viewBox="0 0 66 82.5" style="enable-background:new 0 0 66 66;" xml:space="preserve"><g><g><path d="M16.7,41.9c1.9,0,3.4-1.5,3.4-3.4c0-1.9-1.5-3.4-3.4-3.4c-1.9,0-3.4,1.5-3.4,3.4C13.3,40.4,14.8,41.9,16.7,41.9z     M16.7,37.1c0.8,0,1.4,0.6,1.4,1.4s-0.6,1.4-1.4,1.4c-0.8,0-1.4-0.6-1.4-1.4S15.9,37.1,16.7,37.1z"/></g><g><path d="M30.6,35.1c-1.9,0-3.4,1.5-3.4,3.4c0,1.9,1.5,3.4,3.4,3.4c1.9,0,3.4-1.5,3.4-3.4C34,36.6,32.5,35.1,30.6,35.1z M30.6,39.9    c-0.8,0-1.4-0.6-1.4-1.4s0.6-1.4,1.4-1.4c0.8,0,1.4,0.6,1.4,1.4S31.4,39.9,30.6,39.9z"/></g><g><path d="M60.3,12.6h-8.9c-3.1,0-5.7,2.8-5.7,6.2v14.9c0,0.6,0.4,1,1,1h2.9v9.1c0,1.5,1.2,2.7,2.8,2.7h7c1.5,0,2.8-1.2,2.8-2.7    v-9.1H65c0.6,0,1-0.4,1-1V18.9C66,15.4,63.5,12.6,60.3,12.6z M64,32.8h-1.9v-7.3c0-0.6-0.4-1-1-1c-0.6,0-1,0.4-1,1v18.4    c0,0.4-0.3,0.7-0.8,0.7h-2.5V34.2c0-0.6-0.4-1-1-1c-0.6,0-1,0.4-1,1v10.4h-2.5c-0.4,0-0.8-0.3-0.8-0.7V25.5c0-0.6-0.4-1-1-1    c-0.6,0-1,0.4-1,1v7.3h-1.9V18.9c0-2.3,1.6-4.2,3.7-4.2h8.9c2,0,3.7,1.9,3.7,4.2V32.8z"/></g><g><path d="M55.9,12.3c3.5,0,6.3-2.8,6.3-6.1S59.3,0,55.9,0c-3.5,0-6.3,2.8-6.3,6.1S52.4,12.3,55.9,12.3z M55.9,2    c2.3,0,4.3,1.9,4.3,4.1s-1.9,4.1-4.3,4.1c-2.3,0-4.3-1.9-4.3-4.1S53.5,2,55.9,2z"/></g><g><path d="M65,48.3H46.7c-0.6,0-1,0.4-1,1V63l-1.5-0.9c-0.8-0.5-1.9-0.5-2.8-0.1l-3.2,1.7c-0.3,0.1-0.6,0.1-0.8,0l-0.2-0.1    c2.1-2.1,3.4-5.3,3.4-8.6v-1.4l6-14.2c0,0,0,0,0,0c0.2-0.5,0-1.1-0.4-1.3l-3.5-1.8V23.7c0-0.6-0.4-1-1-1H37V12.3c0-0.6-0.4-1-1-1    h-4.9V1c0-0.6-0.4-1-1-1H16.9c-0.6,0-1,0.4-1,1v10.3h-4.9c-0.6,0-1,0.4-1,1v10.3H5.2c-0.6,0-1,0.4-1,1v12.8l-3.5,1.8    c-0.5,0.2-0.7,0.8-0.4,1.3l6.4,13.6v1.8c0,3.4,1.8,6.6,3.8,8.7l-0.2,0.1c-0.3,0.1-0.6,0.1-0.8,0l-2.7-1.6c-0.9-0.5-2-0.5-2.9,0    l-3.5,2.1C0,64.4-0.1,65,0.1,65.5C0.4,66,1,66.1,1.5,65.9L5,63.8c0.3-0.2,0.6-0.2,0.8,0l2.7,1.6c0.8,0.5,1.8,0.5,2.7,0.1l3.4-1.7    c0.3-0.1,0.6-0.1,0.8,0.1l2.1,1.4c0.9,0.6,2,0.6,2.9,0.1l2.9-1.6c0.3-0.1,0.6-0.1,0.8,0l2.8,1.6c0.8,0.5,1.9,0.5,2.7,0l3.2-1.7    c0.3-0.1,0.5-0.1,0.8,0l1.3,0.8c0,0,0,0,0,0l1.3,0.8c0.8,0.5,1.9,0.5,2.8,0.1l3.2-1.7c0.2-0.1,0.6-0.1,0.8,0l2.5,1.5    c0,0,0.1,0,0.1,0.1c0.1,0.4,0.5,0.6,0.9,0.6H65c0.6,0,1-0.4,1-1V49.3C66,48.7,65.6,48.3,65,48.3z M39.1,51.9H24.7V29.1l19.7,10.2    L39.1,51.9z M35,22.7H24.5v-9.3c5.8,0,4.6,0,10.5,0V22.7z M17.9,2h11.2v9.3c-4.1,0-7.2,0-11.2,0V2z M11.9,13.3c6,0,4.7,0,10.5,0    v9.3H11.9V13.3z M6.2,24.7c6.8,0,11.3,0,17.2,0c5.9,0,10.4,0,17.2,0v10.4l-16.4-8.5c0,0-0.1,0-0.1-0.1c0,0,0,0,0,0    c-0.2-0.1-0.5-0.1-0.8,0c0,0,0,0,0,0c0,0-0.1,0-0.1,0L6.2,35.4V24.7z M2.5,39.6l20.3-10.6v22.9H8.3L2.5,39.6z M32,62l-3.2,1.7    c-0.3,0.1-0.6,0.1-0.8,0L25.2,62c-0.9-0.5-1.9-0.5-2.8,0l-2.9,1.6c-0.3,0.1-0.6,0.1-0.9,0l-2.1-1.4c-0.8-0.6-1.9-0.6-2.8-0.2    l-1.3,0.7c-1.9-1.7-3.7-4.7-3.7-7.7v-1h30v1c0,2.9-1.3,5.8-3.2,7.5L34.7,62C33.9,61.5,32.8,61.5,32,62z M64,64H47.7V50.3H64V64z"/></g></g><text x="0" y="81" fill="#000000" font-size="5px" font-weight="bold" font-family="'Helvetica Neue', Helvetica, Arial-Unicode, Arial, Sans-serif">Created by Vectors Market</text><text x="0" y="86" fill="#000000" font-size="5px" font-weight="bold" font-family="'Helvetica Neue', Helvetica, Arial-Unicode, Arial, Sans-serif">from the Noun Project</text></svg>