<svg width="170" height="36" viewBox="0 0 170 36" fill="none" xmlns="http://www.w3.org/2000/svg">
<path d="M52.0467 10.4939V6.45239H71.0881V10.4939H63.99V29.6372H59.1448V10.4939H52.0467Z" fill="#1E2023"/>
<path d="M72.3277 29.6372V12.2486H77.0032V15.2825H77.1843C77.5013 14.2033 78.0334 13.3882 78.7805 12.8373C79.5277 12.2788 80.3881 11.9995 81.3616 11.9995C81.6031 11.9995 81.8635 12.0146 82.1428 12.0448C82.422 12.075 82.6673 12.1165 82.8786 12.1693V16.4486C82.6522 16.3806 82.339 16.3203 81.939 16.2674C81.539 16.2146 81.173 16.1882 80.8409 16.1882C80.1315 16.1882 79.4975 16.3429 78.939 16.6523C78.3881 16.9542 77.9503 17.3769 77.6258 17.9202C77.3088 18.4636 77.1503 19.0901 77.1503 19.7995V29.6372H72.3277Z" fill="#1E2023"/>
<path d="M89.8323 29.9655C88.7229 29.9655 87.7342 29.773 86.8663 29.3881C85.9984 28.9957 85.3116 28.4183 84.806 27.656C84.3078 26.8862 84.0588 25.9277 84.0588 24.7806C84.0588 23.8146 84.2361 23.0032 84.5909 22.3466C84.9456 21.69 85.4286 21.1617 86.0399 20.7617C86.6512 20.3617 87.3456 20.0599 88.1229 19.8561C88.9078 19.6523 89.7305 19.5089 90.5908 19.4259C91.6021 19.3202 92.4172 19.2221 93.0361 19.1316C93.655 19.0334 94.104 18.8901 94.3833 18.7014C94.6625 18.5127 94.8021 18.2335 94.8021 17.8636V17.7957C94.8021 17.0787 94.5757 16.524 94.1229 16.1316C93.6776 15.7391 93.0436 15.5429 92.221 15.5429C91.3531 15.5429 90.6625 15.7354 90.1493 16.1203C89.6361 16.4976 89.2965 16.9731 89.1305 17.5467L84.6701 17.1844C84.8965 16.1278 85.3418 15.2146 86.0059 14.4448C86.6701 13.6674 87.5267 13.0712 88.5757 12.6561C89.6323 12.2335 90.855 12.0222 92.2436 12.0222C93.2097 12.0222 94.1342 12.1354 95.0172 12.3618C95.9078 12.5882 96.6964 12.9391 97.3832 13.4146C98.0776 13.8901 98.6247 14.5014 99.0247 15.2486C99.4247 15.9882 99.6247 16.875 99.6247 17.9089V29.6372H95.0512V27.2259H94.9153C94.6361 27.7692 94.2625 28.2485 93.7946 28.6636C93.3267 29.0711 92.7644 29.3919 92.1078 29.6258C91.4512 29.8522 90.6927 29.9655 89.8323 29.9655ZM91.2135 26.6372C91.9229 26.6372 92.5493 26.4976 93.0927 26.2183C93.6361 25.9315 94.0625 25.5466 94.3719 25.0636C94.6814 24.5806 94.8361 24.0334 94.8361 23.4221V21.5768C94.6851 21.6749 94.4776 21.7655 94.2134 21.8485C93.9568 21.924 93.6663 21.9957 93.3418 22.0636C93.0172 22.124 92.6927 22.1806 92.3682 22.2334C92.0436 22.2787 91.7493 22.3202 91.4852 22.358C90.9191 22.441 90.4248 22.573 90.0021 22.7542C89.5795 22.9353 89.2512 23.1806 89.0172 23.49C88.7833 23.7919 88.6663 24.1693 88.6663 24.6221C88.6663 25.2787 88.904 25.7806 89.3795 26.1277C89.8625 26.4674 90.4738 26.6372 91.2135 26.6372Z" fill="#1E2023"/>
<path d="M117.834 17.207L113.419 17.4787C113.344 17.1014 113.181 16.7618 112.932 16.4599C112.683 16.1504 112.355 15.9052 111.947 15.724C111.547 15.5354 111.068 15.441 110.51 15.441C109.762 15.441 109.132 15.5995 108.619 15.9165C108.106 16.2259 107.849 16.641 107.849 17.1618C107.849 17.5769 108.015 17.9278 108.347 18.2146C108.679 18.5014 109.249 18.7316 110.057 18.9051L113.204 19.5391C114.894 19.8863 116.155 20.4448 116.985 21.2146C117.815 21.9844 118.23 22.9957 118.23 24.2485C118.23 25.3881 117.894 26.3881 117.223 27.2485C116.559 28.1089 115.645 28.7806 114.483 29.2636C113.328 29.739 111.996 29.9768 110.487 29.9768C108.185 29.9768 106.351 29.4975 104.985 28.5391C103.627 27.573 102.83 26.2598 102.596 24.5995L107.34 24.3504C107.483 25.0523 107.83 25.5881 108.381 25.9579C108.932 26.3202 109.638 26.5013 110.498 26.5013C111.344 26.5013 112.023 26.3391 112.536 26.0145C113.057 25.6825 113.321 25.2561 113.328 24.7353C113.321 24.2976 113.136 23.9391 112.774 23.6598C112.411 23.373 111.853 23.1542 111.098 23.0032L108.087 22.4032C106.389 22.0636 105.125 21.4749 104.295 20.6372C103.472 19.7995 103.061 18.7316 103.061 17.4335C103.061 16.3165 103.362 15.3542 103.966 14.5467C104.578 13.7391 105.434 13.1165 106.536 12.6788C107.645 12.241 108.944 12.0222 110.43 12.0222C112.627 12.0222 114.355 12.4863 115.615 13.4146C116.883 14.3429 117.623 15.6071 117.834 17.207Z" fill="#1E2023"/>
<path d="M130.516 12.2486V15.8712H120.044V12.2486H130.516ZM122.422 8.08257H127.244V24.2938C127.244 24.7391 127.312 25.0862 127.448 25.3353C127.584 25.5768 127.773 25.7466 128.014 25.8447C128.263 25.9428 128.55 25.9919 128.875 25.9919C129.101 25.9919 129.327 25.973 129.554 25.9353C129.78 25.89 129.954 25.856 130.075 25.8334L130.833 29.4221C130.592 29.4975 130.252 29.5843 129.814 29.6824C129.376 29.7881 128.844 29.8522 128.218 29.8749C127.056 29.9202 126.037 29.7655 125.161 29.4107C124.293 29.056 123.618 28.5051 123.135 27.7579C122.652 27.0108 122.414 26.0674 122.422 24.9278V8.08257Z" fill="#1E2023"/>
<path d="M141.395 29.9768C139.607 29.9768 138.067 29.6145 136.776 28.89C135.493 28.1579 134.505 27.124 133.81 25.7881C133.116 24.4447 132.769 22.8561 132.769 21.0221C132.769 19.2334 133.116 17.6636 133.81 16.3127C134.505 14.9618 135.482 13.909 136.742 13.1542C138.01 12.3995 139.497 12.0222 141.203 12.0222C142.35 12.0222 143.418 12.2071 144.407 12.5769C145.403 12.9391 146.271 13.4863 147.01 14.2184C147.757 14.9505 148.339 15.8712 148.754 16.9806C149.169 18.0825 149.376 19.3731 149.376 20.8523V22.1768H134.693V19.1882H144.837C144.837 18.4938 144.686 17.8787 144.384 17.3429C144.082 16.807 143.663 16.3882 143.127 16.0863C142.599 15.7769 141.984 15.6221 141.282 15.6221C140.55 15.6221 139.901 15.792 139.335 16.1316C138.776 16.4637 138.339 16.9127 138.022 17.4787C137.705 18.0372 137.542 18.6599 137.535 19.3467V22.1881C137.535 23.0485 137.693 23.7919 138.01 24.4183C138.335 25.0447 138.791 25.5277 139.38 25.8674C139.969 26.207 140.667 26.3768 141.474 26.3768C142.01 26.3768 142.501 26.3013 142.946 26.1504C143.391 25.9994 143.773 25.773 144.09 25.4711C144.407 25.1693 144.648 24.7995 144.814 24.3617L149.274 24.6561C149.048 25.7277 148.584 26.6636 147.882 27.4636C147.188 28.256 146.29 28.8749 145.188 29.3202C144.093 29.7579 142.829 29.9768 141.395 29.9768Z" fill="#1E2023"/>
<path d="M156.893 24.6334L156.905 18.8485H157.606L163.176 12.2486H168.712L161.229 20.9882H160.086L156.893 24.6334ZM152.523 29.6372V6.45239H157.346V29.6372H152.523ZM163.391 29.6372L158.274 22.0636L161.489 18.6561L169.04 29.6372H163.391Z" fill="#1E2023"/>
<path d="M23.9685 13.7445L22.8153 15.7414C22.6993 15.9431 22.4841 16.0672 22.2515 16.0672H14.3684C14.1358 16.0672 13.9211 16.1912 13.8045 16.3929L12.9926 17.7991C12.8765 18.0003 12.876 18.2489 12.9926 18.4501L13.8045 19.8563C13.9211 20.0575 14.1358 20.182 14.3684 20.182H22.252C22.4841 20.182 22.6993 20.3061 22.8153 20.5068L26.9985 27.7329C27.115 27.9341 27.3297 28.0577 27.5618 28.0577H29.1862C29.4188 28.0577 29.634 27.9336 29.75 27.7319L30.5614 26.3262C30.678 26.1245 30.6775 25.8759 30.561 25.6742L26.3788 18.4496C26.2622 18.2479 26.2618 17.9993 26.3783 17.7976L27.6037 15.6756C27.8542 15.2418 28.4808 15.2418 28.7314 15.6756L29.8188 17.559C30.0693 17.9929 30.6959 17.9929 30.9465 17.559L31.8939 15.9177C32.0099 15.7165 32.0099 15.4679 31.8939 15.2667L30.4504 12.7672L30.0544 12.0813C29.9378 11.88 29.9378 11.6315 30.0544 11.4302L30.418 10.8006C30.6685 10.3668 30.3552 9.82385 29.8541 9.82385H26.2309H25.3522H17.9722C17.7396 9.82385 17.5244 9.94788 17.4083 10.1496L16.4609 11.7904C16.2104 12.2242 16.5237 12.7672 17.0248 12.7672H23.4041C23.9057 12.7677 24.219 13.3106 23.9685 13.7445Z" fill="#DF1119"/>
<path d="M37.3113 5.7483C35.3458 2.34521 31.7141 0.248657 27.7835 0.248657H20.7427H14.5701C13.9046 0.248657 13.2905 0.603321 12.9577 1.17963L6.7986 11.8477L3.32378 17.8658C3.23163 18.0257 3.23163 18.223 3.32378 18.3829L5.11549 21.4866C5.36654 21.9214 5.81633 22.2044 6.31693 22.2422L10.1504 22.5316C10.4248 22.5525 10.4637 22.9391 10.1987 23.0138L6.58591 24.0329L6.59438 24.0474L0.488544 25.7141C-0.0932482 25.8729 0.0218203 26.7297 0.624534 26.7297H5.4542H8.143H13.145H14.4954C14.8934 26.7297 15.142 26.2988 14.9432 25.9546L13.5007 23.4561L11.6103 20.182L10.8806 18.9178C10.5972 18.4272 10.5972 17.8225 10.8806 17.3319L11.6103 16.0676L16.582 7.45681C16.9147 6.881 17.5294 6.52585 18.1944 6.52585H36.865C37.2615 6.52535 37.5096 6.09249 37.3113 5.7483Z" fill="#DF1119"/>
<path d="M37.8911 12.8887C37.5997 12.8633 37.5664 12.4499 37.8503 12.3782L44.4522 10.7239C44.9748 10.5939 44.8806 9.82434 44.3422 9.82434H33.705C33.1327 9.82434 32.7751 10.444 33.061 10.9396L36.9946 17.7523C37.1275 17.9824 37.1275 18.2658 36.9946 18.4959L31.7001 27.6661L30.941 28.9812C30.6755 29.4404 30.1859 29.7233 29.6554 29.7233H28.1372H17.119H11.1591C10.5867 29.7233 10.2291 30.343 10.515 30.8386L12.7475 34.7049C13.2103 35.5064 14.0651 36 14.9905 36H20.7427H26.8889H27.653C31.6648 36 35.3722 33.8597 37.3781 30.3853L37.7601 29.7233L41.215 23.739C43.0047 20.6393 43.1965 16.898 41.7923 13.6598C41.6738 13.3863 41.4168 13.1975 41.1194 13.1716L37.8911 12.8887Z" fill="#DF1119"/>
</svg>
