<svg width="170" height="37" viewBox="0 0 170 37" fill="none" xmlns="http://www.w3.org/2000/svg">
<path d="M52.0467 11.0193V6.97778H71.0881V11.0193H63.99V30.1625H59.1448V11.0193H52.0467Z" fill="white"/>
<path d="M72.3277 30.1625V12.774H77.0032V15.8079H77.1843C77.5013 14.7287 78.0334 13.9136 78.7805 13.3627C79.5277 12.8042 80.3881 12.5249 81.3616 12.5249C81.6031 12.5249 81.8635 12.54 82.1428 12.5702C82.422 12.6004 82.6673 12.6419 82.8786 12.6947V16.9739C82.6522 16.906 82.339 16.8456 81.939 16.7928C81.539 16.74 81.173 16.7136 80.8409 16.7136C80.1315 16.7136 79.4975 16.8683 78.939 17.1777C78.3881 17.4796 77.9503 17.9022 77.6258 18.4456C77.3088 18.989 77.1503 19.6154 77.1503 20.3249V30.1625H72.3277Z" fill="white"/>
<path d="M89.8323 30.4908C88.7229 30.4908 87.7342 30.2984 86.8663 29.9135C85.9984 29.521 85.3116 28.9437 84.806 28.1814C84.3078 27.4116 84.0588 26.4531 84.0588 25.306C84.0588 24.3399 84.2361 23.5286 84.5909 22.872C84.9456 22.2154 85.4286 21.6871 86.0399 21.2871C86.6512 20.8871 87.3456 20.5852 88.1229 20.3815C88.9078 20.1777 89.7305 20.0343 90.5908 19.9513C91.6021 19.8456 92.4172 19.7475 93.0361 19.657C93.655 19.5588 94.104 19.4154 94.3833 19.2268C94.6625 19.0381 94.8021 18.7588 94.8021 18.389V18.3211C94.8021 17.6041 94.5757 17.0494 94.1229 16.657C93.6776 16.2645 93.0436 16.0683 92.221 16.0683C91.3531 16.0683 90.6625 16.2607 90.1493 16.6456C89.6361 17.023 89.2965 17.4985 89.1305 18.0721L84.6701 17.7098C84.8965 16.6532 85.3418 15.74 86.0059 14.9702C86.6701 14.1928 87.5267 13.5966 88.5757 13.1815C89.6323 12.7589 90.855 12.5476 92.2436 12.5476C93.2097 12.5476 94.1342 12.6608 95.0172 12.8872C95.9078 13.1136 96.6964 13.4645 97.3832 13.94C98.0776 14.4155 98.6247 15.0268 99.0247 15.774C99.4247 16.5136 99.6247 17.4004 99.6247 18.4343V30.1625H95.0512V27.7512H94.9153C94.6361 28.2946 94.2625 28.7739 93.7946 29.189C93.3267 29.5965 92.7644 29.9173 92.1078 30.1512C91.4512 30.3776 90.6927 30.4908 89.8323 30.4908ZM91.2135 27.1626C91.9229 27.1626 92.5493 27.0229 93.0927 26.7437C93.6361 26.4569 94.0625 26.072 94.3719 25.589C94.6814 25.106 94.8361 24.5588 94.8361 23.9475V22.1022C94.6851 22.2003 94.4776 22.2909 94.2134 22.3739C93.9568 22.4494 93.6663 22.5211 93.3418 22.589C93.0172 22.6494 92.6927 22.706 92.3682 22.7588C92.0436 22.8041 91.7493 22.8456 91.4852 22.8833C90.9191 22.9664 90.4248 23.0984 90.0021 23.2796C89.5795 23.4607 89.2512 23.706 89.0172 24.0154C88.7833 24.3173 88.6663 24.6947 88.6663 25.1475C88.6663 25.8041 88.904 26.306 89.3795 26.6531C89.8625 26.9928 90.4738 27.1626 91.2135 27.1626Z" fill="white"/>
<path d="M117.834 17.7324L113.419 18.0041C113.344 17.6268 113.181 17.2872 112.932 16.9853C112.683 16.6758 112.355 16.4306 111.947 16.2494C111.547 16.0607 111.068 15.9664 110.51 15.9664C109.762 15.9664 109.132 16.1249 108.619 16.4419C108.106 16.7513 107.849 17.1664 107.849 17.6872C107.849 18.1022 108.015 18.4532 108.347 18.74C108.679 19.0268 109.249 19.257 110.057 19.4305L113.204 20.0645C114.894 20.4117 116.155 20.9702 116.985 21.74C117.815 22.5098 118.23 23.5211 118.23 24.7739C118.23 25.9135 117.894 26.9135 117.223 27.7739C116.559 28.6343 115.645 29.3059 114.483 29.789C113.328 30.2644 111.996 30.5022 110.487 30.5022C108.185 30.5022 106.351 30.0229 104.985 29.0644C103.627 28.0984 102.83 26.7852 102.596 25.1248L107.34 24.8758C107.483 25.5777 107.83 26.1135 108.381 26.4833C108.932 26.8456 109.638 27.0267 110.498 27.0267C111.344 27.0267 112.023 26.8645 112.536 26.5399C113.057 26.2079 113.321 25.7814 113.328 25.2607C113.321 24.823 113.136 24.4645 112.774 24.1852C112.411 23.8984 111.853 23.6796 111.098 23.5286L108.087 22.9286C106.389 22.589 105.125 22.0003 104.295 21.1626C103.472 20.3249 103.061 19.257 103.061 17.9588C103.061 16.8419 103.362 15.8796 103.966 15.0721C104.578 14.2645 105.434 13.6419 106.536 13.2042C107.645 12.7664 108.944 12.5476 110.43 12.5476C112.627 12.5476 114.355 13.0117 115.615 13.94C116.883 14.8683 117.623 16.1324 117.834 17.7324Z" fill="white"/>
<path d="M130.516 12.774V16.3966H120.044V12.774H130.516ZM122.422 8.60796H127.244V24.8192C127.244 25.2645 127.312 25.6116 127.448 25.8607C127.584 26.1022 127.773 26.272 128.014 26.3701C128.263 26.4682 128.55 26.5173 128.875 26.5173C129.101 26.5173 129.327 26.4984 129.554 26.4607C129.78 26.4154 129.954 26.3814 130.075 26.3588L130.833 29.9475C130.592 30.0229 130.252 30.1097 129.814 30.2078C129.376 30.3135 128.844 30.3776 128.218 30.4003C127.056 30.4456 126.037 30.2908 125.161 29.9361C124.293 29.5814 123.618 29.0305 123.135 28.2833C122.652 27.5361 122.414 26.5928 122.422 25.4531V8.60796Z" fill="white"/>
<path d="M141.395 30.5022C139.607 30.5022 138.067 30.1399 136.776 29.4154C135.493 28.6833 134.505 27.6494 133.81 26.3135C133.116 24.9701 132.769 23.3815 132.769 21.5475C132.769 19.7588 133.116 18.189 133.81 16.8381C134.505 15.4872 135.482 14.4343 136.742 13.6796C138.01 12.9249 139.497 12.5476 141.203 12.5476C142.35 12.5476 143.418 12.7325 144.407 13.1023C145.403 13.4645 146.271 14.0117 147.01 14.7438C147.757 15.4758 148.339 16.3966 148.754 17.506C149.169 18.6079 149.376 19.8985 149.376 21.3777V22.7022H134.693V19.7136H144.837C144.837 19.0192 144.686 18.4041 144.384 17.8683C144.082 17.3324 143.663 16.9136 143.127 16.6117C142.599 16.3023 141.984 16.1475 141.282 16.1475C140.55 16.1475 139.901 16.3173 139.335 16.657C138.776 16.989 138.339 17.4381 138.022 18.0041C137.705 18.5626 137.542 19.1853 137.535 19.872V22.7135C137.535 23.5739 137.693 24.3173 138.01 24.9437C138.335 25.5701 138.791 26.0531 139.38 26.3928C139.969 26.7324 140.667 26.9022 141.474 26.9022C142.01 26.9022 142.501 26.8267 142.946 26.6758C143.391 26.5248 143.773 26.2984 144.09 25.9965C144.407 25.6947 144.648 25.3248 144.814 24.8871L149.274 25.1814C149.048 26.2531 148.584 27.189 147.882 27.989C147.188 28.7814 146.29 29.4003 145.188 29.8456C144.093 30.2833 142.829 30.5022 141.395 30.5022Z" fill="white"/>
<path d="M156.893 25.1588L156.905 19.3739H157.606L163.176 12.774H168.712L161.229 21.5135H160.086L156.893 25.1588ZM152.523 30.1625V6.97778H157.346V30.1625H152.523ZM163.391 30.1625L158.274 22.589L161.489 19.1815L169.04 30.1625H163.391Z" fill="white"/>
<path d="M23.9685 14.2699L22.8153 16.2668C22.6993 16.4685 22.4841 16.5926 22.2515 16.5926H14.3684C14.1358 16.5926 13.9211 16.7166 13.8045 16.9183L12.9926 18.3245C12.8765 18.5257 12.876 18.7743 12.9926 18.9755L13.8045 20.3817C13.9211 20.5829 14.1358 20.7074 14.3684 20.7074H22.252C22.4841 20.7074 22.6993 20.8315 22.8153 21.0322L26.9985 28.2583C27.115 28.4595 27.3297 28.5831 27.5618 28.5831H29.1862C29.4188 28.5831 29.634 28.459 29.75 28.2573L30.5614 26.8516C30.678 26.6499 30.6775 26.4013 30.561 26.1996L26.3788 18.975C26.2622 18.7733 26.2618 18.5247 26.3783 18.323L27.6037 16.201C27.8542 15.7672 28.4808 15.7672 28.7314 16.201L29.8188 18.0844C30.0693 18.5182 30.6959 18.5182 30.9465 18.0844L31.8939 16.4431C32.0099 16.2419 32.0099 15.9933 31.8939 15.7921L30.4504 13.2926L30.0544 12.6067C29.9378 12.4054 29.9378 12.1569 30.0544 11.9556L30.418 11.326C30.6685 10.8922 30.3552 10.3492 29.8541 10.3492H26.2309H25.3522H17.9722C17.7396 10.3492 17.5244 10.4733 17.4083 10.675L16.4609 12.3158C16.2104 12.7496 16.5237 13.2926 17.0248 13.2926H23.4041C23.9057 13.2931 24.219 13.836 23.9685 14.2699Z" fill="white"/>
<path d="M37.3113 6.27369C35.3458 2.8706 31.7141 0.774048 27.7835 0.774048H20.7427H14.5701C13.9046 0.774048 13.2905 1.12871 12.9577 1.70502L6.7986 12.373L3.32378 18.3912C3.23163 18.5511 3.23163 18.7484 3.32378 18.9082L5.11549 22.012C5.36654 22.4468 5.81633 22.7298 6.31693 22.7676L10.1504 23.057C10.4248 23.0779 10.4637 23.4645 10.1987 23.5392L6.58591 24.5583L6.59438 24.5728L0.488544 26.2394C-0.0932482 26.3983 0.0218203 27.2551 0.624534 27.2551H5.4542H8.143H13.145H14.4954C14.8934 27.2551 15.142 26.8242 14.9432 26.48L13.5007 23.9815L11.6103 20.7074L10.8806 19.4432C10.5972 18.9526 10.5972 18.3479 10.8806 17.8572L11.6103 16.593L16.582 7.9822C16.9147 7.40639 17.5294 7.05124 18.1944 7.05124H36.865C37.2615 7.05074 37.5096 6.61788 37.3113 6.27369Z" fill="white"/>
<path d="M37.8911 13.4141C37.5997 13.3887 37.5664 12.9753 37.8503 12.9035L44.4522 11.2493C44.9748 11.1193 44.8806 10.3497 44.3422 10.3497H33.705C33.1327 10.3497 32.7751 10.9694 33.061 11.465L36.9946 18.2777C37.1275 18.5078 37.1275 18.7912 36.9946 19.0213L31.7001 28.1915L30.941 29.5066C30.6755 29.9658 30.1859 30.2487 29.6554 30.2487H28.1372H17.119H11.1591C10.5867 30.2487 10.2291 30.8684 10.515 31.364L12.7475 35.2303C13.2103 36.0318 14.0651 36.5254 14.9905 36.5254H20.7427H26.8889H27.653C31.6648 36.5254 35.3722 34.385 37.3781 30.9107L37.7601 30.2487L41.215 24.2644C43.0047 21.1647 43.1965 17.4234 41.7923 14.1852C41.6738 13.9117 41.4168 13.7229 41.1194 13.697L37.8911 13.4141Z" fill="white"/>
</svg>
